<svg width="32" height="32" viewBox="0 0 32 32" fill="none" xmlns="http://www.w3.org/2000/svg">
  <!-- Pixel Art Coffee Cup - Each unit = 1 pixel -->

  <!-- Lid top -->
  <rect x="19" y="3" width="2" height="1" fill="#0A1E50"/>
  <rect x="21" y="4" width="1" height="1" fill="#0A1E50"/>

  <!-- Lid band 1 -->
  <rect x="8" y="5" width="17" height="1" fill="#0A1E50"/>
  <rect x="7" y="6" width="1" height="1" fill="#0A1E50"/>
  <rect x="25" y="6" width="1" height="1" fill="#0A1E50"/>
  <rect x="8" y="6" width="17" height="1" fill="#4A7FBF"/>

  <!-- Lid band 2 -->
  <rect x="7" y="7" width="19" height="1" fill="#0A1E50"/>
  <rect x="8" y="8" width="17" height="3" fill="#4A7FBF"/>
  <rect x="7" y="8" width="1" height="3" fill="#0A1E50"/>
  <rect x="25" y="8" width="1" height="3" fill="#0A1E50"/>

  <!-- Cup rim -->
  <rect x="6" y="11" width="1" height="1" fill="#0A1E50"/>
  <rect x="26" y="11" width="1" height="1" fill="#0A1E50"/>
  <rect x="5" y="12" width="1" height="12" fill="#0A1E50"/>
  <rect x="27" y="12" width="1" height="12" fill="#0A1E50"/>

  <!-- Cup body -->
  <rect x="6" y="12" width="21" height="12" fill="#4A7FBF"/>

  <!-- Handle cutouts -->
  <rect x="14" y="16" width="2" height="1" fill="#4A7FBF"/>
  <rect x="15" y="17" width="2" height="1" fill="#4A7FBF"/>
  <rect x="14" y="16" width="4" height="2" fill="#1E5AA8"/>

  <!-- Cup bottom section -->
  <rect x="4" y="24" width="1" height="2" fill="#0A1E50"/>
  <rect x="28" y="24" width="1" height="2" fill="#0A1E50"/>
  <rect x="5" y="24" width="23" height="2" fill="#4A7FBF"/>

  <!-- Cup base -->
  <rect x="6" y="26" width="21" height="4" fill="#0A1E50"/>
  <rect x="7" y="27" width="19" height="3" fill="#4A7FBF"/>

  <!-- Bottom rim -->
  <rect x="5" y="30" width="23" height="1" fill="#0A1E50"/>
  <rect x="6" y="31" width="21" height="1" fill="#0A1E50"/>
</svg>
